# xmcd CD database file
#
# Track frame offsets:
#	150
#	29755
#	68067
#	106918
#	148696
#	185638
#	209600
#	237987
#	272471
#
# Disc length: 4098 seconds
#
# Revision: 0
# Processed by: cddbd v1.5.1PL0 Copyright (c) Steve Scherf et al.
# Submitted via: CDex 1.51
#
DISCID=88100009
DTITLE=Conrad Herwig Sextet - Unseen Universe
DYEAR=2000
DGENRE=Jazz
TTITLE0=The Tesseract
TTITLE1=From Another Dimension
TTITLE2=Unseen Universe
TTITLE3=Triangle
TTITLE4=All Is One
TTITLE5=Rebirth
TTITLE6=Circumstantially Evident
TTITLE7=The Magic Door
TTITLE8=Three Degrees Of Freedom
EXTD=YEAR: 2000
EXTT0=
EXTT1=
EXTT2=
EXTT3=
EXTT4=
EXTT5=
EXTT6=
EXTT7=
EXTT8=
PLAYORDER=
